<?xml version="1.0" standalone="no"?>
<!DOCTYPE svg PUBLIC "-//W3C//DTD SVG 20010904//EN"
 "http://www.w3.org/TR/2001/REC-SVG-20010904/DTD/svg10.dtd">
<svg version="1.0" xmlns="http://www.w3.org/2000/svg"
 width="181.000000pt" height="180.000000pt" viewBox="0 0 181.000000 180.000000"
 preserveAspectRatio="xMidYMid meet">

<g transform="translate(0.000000,180.000000) scale(0.100000,-0.100000)"
fill="#000000" stroke="none">
<path d="M714 1758 c-35 -31 -43 -33 -111 -34 l-74 0 -52 -57 c-43 -46 -60
-57 -95 -63 -56 -9 -89 -36 -102 -83 -11 -41 -53 -91 -77 -91 -8 0 -28 -13
-44 -29 -24 -24 -29 -38 -29 -76 0 -52 -21 -99 -51 -116 -36 -19 -50 -69 -37
-133 12 -53 11 -59 -15 -110 -33 -65 -33 -80 -2 -131 26 -43 31 -87 15 -131
-13 -34 3 -87 34 -111 39 -32 56 -66 56 -114 0 -36 6 -55 26 -78 14 -17 32
-31 39 -31 26 0 74 -51 81 -85 8 -45 47 -83 93 -90 58 -10 79 -22 106 -64 32
-47 71 -66 124 -57 46 7 82 -4 123 -39 35 -30 72 -32 139 -8 45 16 50 16 84 0
52 -25 107 -22 143 8 43 36 75 45 132 38 l51 -6 53 58 c45 48 61 58 102 66 58
11 84 36 108 102 15 40 25 51 67 72 57 29 79 65 79 130 0 41 5 51 40 86 48 48
57 77 41 139 -13 49 -9 69 21 112 25 36 23 87 -8 146 -23 44 -24 54 -15 88 19
69 14 90 -34 144 -38 42 -45 57 -45 91 0 62 -23 100 -77 129 -26 14 -53 36
-59 50 -51 112 -44 107 -142 130 -33 9 -48 20 -69 51 -37 55 -70 71 -136 63
-47 -6 -56 -3 -82 18 -61 51 -107 60 -155 33 -33 -19 -69 -19 -113 0 -57 24
-92 19 -133 -17z"/>
</g>
</svg>
